<?xml version="1.0" standalone="no"?>
<!DOCTYPE svg PUBLIC "-//W3C//DTD SVG 20010904//EN"
 "http://www.w3.org/TR/2001/REC-SVG-20010904/DTD/svg10.dtd">
<svg version="1.0" xmlns="http://www.w3.org/2000/svg"
 width="32.000000pt" height="32.000000pt" viewBox="0 0 32.000000 32.000000"
 preserveAspectRatio="xMidYMid meet">

<g transform="translate(0.000000,32.000000) scale(0.100000,-0.100000)"
fill="#000000" stroke="none">
<path d="M12 308 c-16 -16 -16 -110 0 -126 16 -16 110 -16 126 0 16 16 16 110
0 126 -16 16 -110 16 -126 0z m113 -63 l0 -50 -50 0 -50 0 -3 39 c-5 60 1 68
55 64 l48 -3 0 -50z"/>
<path d="M182 308 c-16 -16 -16 -110 0 -126 16 -16 110 -16 126 0 16 16 16
110 0 126 -16 16 -110 16 -126 0z m113 -63 l0 -50 -50 0 -50 0 -3 39 c-5 60 1
68 55 64 l48 -3 0 -50z"/>
<path d="M12 138 c-16 -16 -16 -110 0 -126 16 -16 110 -16 126 0 16 16 16 110
0 126 -16 16 -110 16 -126 0z m113 -63 l0 -50 -50 0 -50 0 -3 39 c-5 60 1 68
55 64 l48 -3 0 -50z"/>
<path d="M195 125 c-14 -13 -25 -36 -25 -50 0 -14 11 -37 25 -50 13 -14 36
-25 50 -25 33 0 75 42 75 75 0 14 -11 37 -25 50 -13 14 -36 25 -50 25 -14 0
-37 -11 -50 -25z m87 -12 c34 -31 11 -93 -35 -93 -27 0 -57 28 -57 53 0 48 56
73 92 40z"/>
</g>
</svg>
