<?xml version="1.0" standalone="no"?>
<!DOCTYPE svg PUBLIC "-//W3C//DTD SVG 20010904//EN"
 "http://www.w3.org/TR/2001/REC-SVG-20010904/DTD/svg10.dtd">
<svg version="1.0" xmlns="http://www.w3.org/2000/svg"
 width="24.000000pt" height="24.000000pt" viewBox="0 0 24.000000 24.000000"
 preserveAspectRatio="xMidYMid meet">

<g transform="translate(0.000000,24.000000) scale(0.100000,-0.100000)"
fill="#000000" stroke="none">
<path d="M67 202 c-16 -18 -41 -138 -31 -153 3 -5 16 -9 30 -9 13 0 24 -4 24
-10 0 -5 14 -10 30 -10 17 0 30 5 30 10 0 6 11 10 24 10 14 0 27 4 30 9 10 15
-15 135 -31 153 -21 24 -85 24 -106 0z m93 -12 c14 -14 20 -33 20 -63 0 -24 5
-48 12 -55 9 -9 -7 -12 -72 -12 -65 0 -81 3 -72 12 7 7 12 31 12 55 0 48 26
83 60 83 11 0 29 -9 40 -20z"/>
</g>
</svg>
