<?xml version="1.0" standalone="no"?>
<!DOCTYPE svg PUBLIC "-//W3C//DTD SVG 20010904//EN"
 "http://www.w3.org/TR/2001/REC-SVG-20010904/DTD/svg10.dtd">
<svg version="1.0" xmlns="http://www.w3.org/2000/svg"
 width="64.000000pt" height="64.000000pt" viewBox="0 0 64.000000 64.000000"
 preserveAspectRatio="xMidYMid meet">

<g transform="translate(0.000000,64.000000) scale(0.100000,-0.100000)"
fill="#000000" stroke="none">
<path d="M205 523 c-70 -37 -105 -95 -105 -173 0 -63 18 -106 61 -147 60 -57
138 -69 215 -34 l42 19 43 -44 c45 -46 79 -57 79 -26 0 10 -20 37 -44 61 l-44
43 19 42 c21 46 24 110 8 153 -12 34 -64 90 -101 109 -36 19 -135 17 -173 -3z
m149 -47 c109 -45 109 -204 0 -256 -164 -80 -287 155 -132 250 39 23 85 26
132 6z"/>
</g>
</svg>
